<svg width="36" height="24" viewBox="0 0 36 24" fill="none" xmlns="http://www.w3.org/2000/svg">
<path d="M8.31596 7.9604H26.1773V5.85048C26.2273 5.32738 25.8572 5.19728 25.407 5.17773C25.1487 5.1656 24.8608 5.16425 24.6011 5.17706H14.3102C11.8411 5.17706 11.3518 3.89358 10.8865 2.67414C10.6213 1.97847 10.3684 1.31449 9.33429 1.31449H2.18127C1.71801 1.31449 1.33631 1.68996 1.33631 2.14565V19.203L5.54671 9.769C5.99215 8.76999 7.20031 7.9604 8.31596 7.9604ZM27.5136 7.9604H33.4105C34.7201 7.9604 35.4471 9.05783 34.9065 10.2719L34.9085 10.2725L29.8532 21.6014C29.4077 22.6011 28.1989 23.41 27.0839 23.41H1.98939C1.46514 23.41 1.04095 23.2374 0.750389 22.9557C0.325511 22.6058 0 21.8009 0 21.267V2.14565C0 0.964631 0.980646 0 2.18127 0H9.33429C11.2887 0 11.702 1.0826 12.1344 2.2171C12.44 3.0186 12.7614 3.8619 14.3102 3.8619C17.8188 3.8619 21.333 3.88414 24.841 3.86324C25.05 3.86122 25.2645 3.8592 25.4646 3.86796C26.5891 3.91919 27.5766 4.23197 27.5122 5.85048L27.5136 7.9604ZM33.405 9.24455H8.31047C7.71702 9.24455 7.00843 9.74473 6.77269 10.2725L1.71733 21.6014L1.71527 21.6007C1.57479 21.9162 1.61522 22.1265 1.99418 22.1265H27.0894C27.6828 22.1265 28.3908 21.6257 28.6265 21.0979L33.6819 9.769C33.6866 9.77102 33.9621 9.24455 33.405 9.24455Z" fill="#DADADA" style="fill:#DADADA;fill:color(display-p3 0.8549 0.8549 0.8549);fill-opacity:1;"/>
</svg>
